<?xml version="1.0" encoding="UTF-8"?>
<svg width="24px" height="24px" viewBox="0 0 24 24" version="1.1" xmlns="http://www.w3.org/2000/svg" xmlns:xlink="http://www.w3.org/1999/xlink">
    <!-- Generator: Sketch 52.2 (67145) - http://www.bohemiancoding.com/sketch -->
    <title>2</title>
    <desc>Created with Sketch.</desc>
    <g id="2" stroke="none" stroke-width="1" fill="none" fill-rule="evenodd">
        <g transform="translate(0.000000, -0.307692)">
            <rect id="Rectangle-24" fill="#3EB6E9" x="0" y="0" width="24" height="24" rx="1.2"></rect>
            <path d="M20.17158,7.98015631 C19.57398,8.24513846 18.93198,8.42279015 18.25758,8.50413908 C18.94578,8.09260923 19.47378,7.44062154 19.72278,6.66601231 C19.07958,7.04643815 18.36558,7.32218708 17.60778,7.47232369 C16.99938,6.82631754 16.13358,6.42316185 15.17598,6.42316185 C13.33578,6.42316185 11.84418,7.91017231 11.84418,9.74471015 C11.84418,10.0037108 11.87358,10.2585243 11.92998,10.5019729 C9.16158,10.3626031 6.70638,9.04068308 5.06298,7.03208246 C4.77678,7.52197046 4.61238,8.09201108 4.61238,8.70033354 C4.61238,9.85357415 5.20038,10.8692394 6.09438,11.4650006 C5.54838,11.4482523 5.03418,11.2981157 4.58538,11.0492837 C4.58478,11.0630412 4.58478,11.0767988 4.58478,11.0917526 C4.58478,12.7013846 5.73378,14.0430437 7.25778,14.3481022 C6.97818,14.4246658 6.68358,14.464144 6.37998,14.464144 C6.16518,14.464144 5.95638,14.4444049 5.75298,14.4049268 C6.17658,15.7250523 7.40718,16.6850892 8.86518,16.7108098 C7.72458,17.6020591 6.28818,18.1338178 4.72758,18.1338178 C4.45878,18.1338178 4.19358,18.1182658 3.93258,18.0865637 C5.40738,19.0292542 7.15818,19.5795557 9.03978,19.5795557 C15.16758,19.5795557 18.51858,14.518576 18.51858,10.1293231 C18.51858,9.98576615 18.51558,9.84161108 18.50958,9.69984862 C19.16058,9.230896 19.72458,8.64590154 20.17158,7.98015631 L20.17158,7.98015631 Z" id="Fill-1" fill="#FAFAFA"></path>
        </g>
        <rect id="Rectangle" x="0" y="0" width="24" height="24"></rect>
    </g>
</svg>